<svg enable-background="new 0 0 248.6 228.9" viewBox="0 0 248.6 228.9" xmlns="http://www.w3.org/2000/svg"><g stroke-miterlimit="10"><g stroke="#4d4948"><path d="m201.3 103.1c-5.5 5.8-6.3 16.7-68.3 26.2-15 2.3-18-32.2 1.5-39.2 21.7-7.8 65.8-68 65.8-68" fill="#fff" stroke-width="3"/><path d="m185.6 41.2 18.1-23.7s5.4-4.9 6 1.8c0 0 0 41.9-18.4 60.9-.1 0 15.8-39.3-5.7-39z" fill="#d70034" stroke-width="3"/><path d="m198.2 91.2c-.8 1-1.9 1.7-3 2.2 12.1-15.2-.4-16.2-4-13.2.7-1 1.5-1.9 2.4-2.7 0 0 7.7-6.4 10.3-10.7 0 0 7.9-10 6 2.8s-7.7 19.4-14.6 23.8" fill="#008cb4" stroke-width="3"/><path d="m195.2 93.4c4.3-1.3 8.3-3.2 12-5.8 3.2-2.1 7.6-9.2 2.7 4-1 2.7-4.9 8-11.4 14.4.1.1 8.8-17.8-3.3-12.6z" fill="#44318f" stroke-width="3"/><path d="m48.2 169.6s-3-3.6-3.7-1.4c-1.5 4.1-5.5 9-6.8 8.1s-4.2-1.6-1.4 2.1c0 0 4 9.3-5.5 12.3 0 0-2.2.3 0 2.5s44.3 7.5 44.3 7.5c-31-34.9-26.9-31.1-26.9-31.1z" fill="#f8b500" stroke-width="3"/><path d="m75.3 204.6c-23.2-2-40.2-8.3-43.8-10.7s0-2.6 0-2.6 28.3 7.4 32.7 6.3.1-1.7.1-1.7c-6.9-2.3-25.1-14.7-27.3-16.9s-1.9-5.1 1.4-2.1 25 14.1 29.3 13.9.3-2.2.3-2.2c-12.7-5.6-22.9-19.7-22.9-19.7-.4-3 2.1-1 2.1-1 7.5 7.6 22.5 16.6 22.5 16.6 16.9 5.8 28-26.8 28-26.8l1.2-1.9s6.9 2.7 4.3 4.2c1.6 1.6-20.4 31.2-20.3 34.4.5 9.5-7.6 10.2-7.6 10.2z" fill="#ffdc00" stroke-width="3"/><path d="m123.3 198.3s-4.6-.5-3.7 1.6c1.8 4 2.3 10.3.8 10.5s-4.2 1.8.4 2.5c0 0 9.4 3.9 4.6 12.6 0 0-1.4 1.7 1.8 1.8s37-25.6 37-25.6c-46.5-3.3-40.9-3.4-40.9-3.4z" fill="#f8b500" stroke-width="3"/><path d="m167.1 204.4c-18 14.7-34.6 22.1-38.8 22.9s-1.8-1.8-1.8-1.8 25.5-14.5 27.8-18.3-1.1-1.3-1.1-1.3c-6.6 3.2-28.2 7-31.3 7s-4.9-2.3-.4-2.5 27.7-7.4 30.7-10.5-1.3-1.8-1.3-1.8c-13 4.8-30.2 1.8-30.2 1.8-2.4-1.9.8-2.2.8-2.2 10.7.2 27.7-3.8 27.7-3.8 16.2-7.7 1.4-38.8 1.4-38.8l-.4-2.2s6.8-2.9 6 0c2.3.1 7.1 36.6 9.5 38.9 6.7 6.4 1.4 12.6 1.4 12.6z" fill="#ffdc00" stroke-width="3"/><path d="m84.3 147c-11.3-12.5-7.5-30.5-7.3-39.1.3-10.8 0-22.4 4.3-28 0 0 .5 0 0 0h-80 .5l-.3-14.7 79.7-.1-70.7-28.2 5.5-14.5 70 28.5c.3-.5 13.2-20.6 37.6-17.4s30.5 20.8 30.6 21.2c.3 0 14.4 1.6 19.2-.7 1-.5-17.2 7.2-18.5 7.8 1.1.2 14.9 1.9 18.5.6 0 0 1.8-.2 0 1.2 0 0-7.5 3-14.8 2.6 1 .4 9.6 4.1 14.6 3.7 0 0 .6.1.1.8s-12.3 3.3-19.7 2.7-7.5.7 1 8.5 30.2 25.6 27.5 42.5-1.1 14.5 13.3 10.8c0 0 2.1.4 0 1.9-.1 0-9.9 1.5-12.4 1.9-.1 0-.1.1-.1.1 0 .1.1.1.1.1 2.1.6 9.5 2.6 13.3 2.2 0 0 2.4.6 0 1.8 0 0-6.6 1.7-11.5.6m.1.1c2.5.9 9 2.9 12.6 2.7 0 0 2.9.7.7 1.7s-11.4 6.7-20.3 11c-.1 0-51.9 30.3-93.6-12.2" fill="#fff" stroke-linecap="round" stroke-width="3"/><circle cx="108.4" cy="49.7" fill="none" r="9.4"/><circle cx="108.4" cy="49.7" fill="#4d4948" r="3.2"/></g><ellipse cx="129.2" cy="64.2" fill="#eb6ea0" rx="9.7" ry="3.3" stroke="#eb6ea0"/><path d="m80.5 49.4-4.8 12.2-8.6-3.4 4.8-12.2z" fill="#4d4948" stroke="#4d4948" stroke-width="2"/><path d="m62.3 42.2-4.8 12.2-8.6-3.4 4.8-12.2z" fill="#4d4948" stroke="#4d4948" stroke-width="2"/><path d="m44.1 35-4.8 12.2-8.6-3.4 4.8-12.2z" fill="#4d4948" stroke="#4d4948" stroke-width="2"/><path d="m25.9 27.9-4.9 12.2-8.6-3.4 4.8-12.2z" fill="#4d4948" stroke="#4d4948" stroke-width="2"/><path d="m81.7 66.3-.1 13.2-9.2-.1.1-13.2z" fill="#4d4948" stroke="#4d4948" stroke-width="2"/><path d="m62.4 65.4-.1 13.2-9.2-.1.1-13.2z" fill="#4d4948" stroke="#4d4948" stroke-width="2"/><path d="m42 65.4-.1 13.2-9.2-.1.1-13.2z" fill="#4d4948" stroke="#4d4948" stroke-width="2"/><path d="m22.1 65.4-.1 13.2-9.2-.1.1-13.2z" fill="#4d4948" stroke="#4d4948" stroke-width="2"/><path d="m96.8 41.4s.8.4-.4 4.1-1.4 14.4 6.8 18.5c0 0 5.7 1.4 2.6 5-3.5 4-18.9 10.4-24.5 11" fill="none" stroke="#4d4948" stroke-width="2"/></g><ellipse cx="92.6" cy="50.6" fill="#4d4948" rx="1.7" ry=".5" transform="matrix(.7838 -.621 .621 .7838 -11.4047 68.4511)"/><path d="m1.3 80.2h79.6v49.5h-79.6z" fill="#4d4948" stroke="#4d4948" stroke-miterlimit="10"/><path d="m1.1 109.9h80" fill="#fff" stroke="#fff" stroke-miterlimit="10" stroke-width="3"/><path d="m40.6 109.4v20" fill="#fff" stroke="#fff" stroke-miterlimit="10" stroke-width="3"/><path d="m14.3 102.1c-.8-.2-1.7-.5-2.5-.8-.7-.4-1.1-1.1-1.2-1.8 0-1.6-.2-3.1-.5-4.6s-.4-3.1-.5-4.6v-.1c.4-.7.3-1.6-.1-2.2-.1-.1-.1-.2 0-.3 0-.1.1-.1.2-.1h.1l2.3.6c.7.2 1.4.4 2.1.6 0 0 .1 0 .1.1 1 1.1 1.8 2.4 2.4 3.7.6 1.2 1.2 2.3 2 3.3.6-1.2 1.3-2.4 2-3.5.8-1.3 1.6-2.5 2.4-3.8v-.1c0-.1 0-.2.1-.3l.2-.2s.1-.1.2-.1h.9c.8.2 1.6.4 2.3.8.5.5.7 1 .8 1.6.1.5.2 1 .2 1.6v2.9c.3.3.4.7.3 1.1 0 1.5 0 3.2-.1 4.9 0 .1 0 .2-.1.2-.3.2-.7.5-1 .7 0 0-.1.1-.2.1l-1.4-.2-.8-.3c-.5-.1-.8-.3-.9-.6-.1-.1-.1-.3 0-.4l.1-.1c-.4-.6-.6-1.3-.7-2.1 0-.2 0-.7-.1-1.1-.2.4-.5.8-.7 1.2-.5.7-1.1 1.3-1.8 1.9 0 0-.1 0-.1.1l-.6.1s0 0-.1 0h-.1c-.2-.1-.5-.1-.7-.1 0 0-.1 0-.2 0l-.8-.4c-.6-.5-1.2-1-1.6-1.7-.2-.3-.4-.7-.6-1l-.1-.2c-.3.7-.3 1.4-.1 2.1l.3.4v.2c-.1.4-.2.8-.3 1.2-.1.5-.3.9-.6 1.2l-.1.1z" fill="#d70034"/><path d="m9.7 87.8 2.3.6c.7.2 1.4.4 2.1.6 1 1.1 1.8 2.3 2.4 3.7.6 1.3 1.4 2.6 2.3 3.7.6-1.3 1.4-2.6 2.2-3.9s1.6-2.6 2.5-3.9l-.1-.2.2-.2h.9c.8.1 1.5.4 2.2.8.4.4.6.9.7 1.5.1.5.2 1 .2 1.6v3c.3.2.4.5.3.9 0 1.7 0 3.3-.1 5-.4.2-.7.5-1 .8l-1.4-.2-.7-.3c-.6-.2-.9-.4-.8-.6l.1-.2c-.4-.6-.6-1.4-.8-2.1-.1-.7-.2-1.5-.3-2.2-.3.7-.6 1.4-1.1 2-.5.7-1.1 1.3-1.7 1.9l-.5.1c-.3-.1-.5-.2-.8-.2l-.8-.5c-.6-.4-1.1-.9-1.5-1.6-.3-.5-.7-1.1-1-1.6-.5.8-.6 1.8-.3 2.7l.3.5c-.1.4-.2.8-.3 1.2s-.3.8-.5 1.1l-.4.1c-.9-.2-1.7-.5-2.5-.8-.6-.3-.9-.9-1-1.6 0-1.6-.2-3.1-.5-4.7-.3-1.5-.4-3-.5-4.5.4-.8.3-1.8-.1-2.5m0-.5c-.2 0-.3.1-.4.2-.1.2-.1.4 0 .6.4.6.4 1.4.1 2 0 .1-.1.2-.1.2.1 1.5.3 3.1.5 4.6.3 1.5.4 3.1.5 4.6.1.8.5 1.6 1.3 2h.1c.8.3 1.7.6 2.6.8h.1.1l.4-.1c.1 0 .2-.1.3-.2.3-.4.6-.8.7-1.4.1-.4.1-.8.3-1.1 0-.1 0-.3-.1-.4l-.3-.4c-.1-.5-.2-.9-.1-1.4.2.3.3.5.5.8.4.7 1 1.3 1.6 1.7h.1l.8.4c.1 0 .2.1.2.1.3 0 .5 0 .7.1h.2.1l.5-.1c.1 0 .2-.1.2-.1.7-.6 1.3-1.2 1.8-2 .1-.2.3-.4.4-.6 0 .2.1.4.1.6.1.7.4 1.4.7 2-.1.2-.1.4 0 .6.1.3.5.5 1 .7l.7.3h.1l1.4.2h.1s.3-.1.3-.1c.3-.3.6-.5.9-.7.1-.1.2-.2.2-.4.1-1.7.1-3.3.1-4.9.1-.4 0-.9-.3-1.2v-2.8s0 0 0-.1c-.1-.6-.2-1.1-.2-1.6-.1-.6-.4-1.2-.8-1.7l-.1-.1c-.7-.4-1.5-.7-2.4-.8h-.1-.9c-.1 0-.3 0-.3.1l-.3.4c-.1.1-.2.3-.1.5-.8 1.2-1.5 2.4-2.3 3.6-.7 1-1.3 2.1-1.8 3.2-.7-.9-1.3-1.9-1.8-3-.6-1.4-1.5-2.6-2.5-3.8-.1-.1-.1-.1-.2-.1-.7-.2-1.4-.4-2.2-.6l-2.3-.6z" fill="#fff"/><path d="m42.7 101.6c-.7 0-1.4-.1-2.1-.2s-1.3-.2-1.9-.4l-.8-.3c-1.9-.8-3.1-1.7-3.6-2.9-.4-1-.8-2.1-1-3.2v-.1c.4-1.2 1-2.2 1.9-3.1.9-1 2-1.8 3.2-2.4l.6-.1.1-.2c0-.1.1-.1.2-.1l.6.1.9-.3c.1-.1.3-.2.6-.2h.3c.4.1.7.2 1.1.2h.1c1.4.3 2.7.5 3.8.7 1.2.2 2.2.3 3.1.4.1 0 .2.1.2.2l.1.4c.2.4.4.8.8 1.2.1.1.1.2 0 .3l-.3.5c0 .1-.1.1-.2.1l-.9.1-1.4-.3-2.8-1.2-.3-.3h-.4c-.5.1-1 .2-1.6.4-1.1.7-2.2 1.6-3.1 2.6-.7.8-1.1 1.8-1.1 2.9 0 .4.2.8.5 1.2s.7.8 1.1 1.1c.3.1.6.2 1 .2h.1c.5-.1 1.1-.2 1.5-.4l1.1-.4c.9-.4 1.7-.7 2.5-1s1.5-.7 2.2-1.2v-.1c0-.1.1-.2.2-.2s.2.1.2.2c.1.4.3.7.5 1v.2c-.1.4-.3.7-.5 1-.1.4-.3.8-.4 1.1l-.1.3c-.3.7-.9 1.2-1.5 1.4l-.5.2c-.6.3-1.3.4-2.1.5 0 0-1.9.1-1.9.1z" fill="#008cb4"/><path d="m41.3 88.3h.2c.4.1.7.2 1.1.2h.1c1.3.3 2.6.5 3.8.7s2.3.3 3.1.4l.1.4c.2.5.5.9.8 1.3l-.3.5-.9.1-1.3-.3-2.7-1.1-.2-.2h-.5c-.6.1-1.1.2-1.6.4-1.2.7-2.3 1.6-3.2 2.7-.8.8-1.2 1.9-1.2 3.1 0 .5.2.9.5 1.3s.7.8 1.1 1.2c.4.2.8.3 1.2.3h.1c.6-.1 1.1-.2 1.6-.4l.7-.3c1-.4 2-.8 2.8-1.2.8-.3 1.6-.8 2.3-1.2l.1-.2c.1.4.3.7.5 1.1-.1.3-.3.7-.5 1-.2.5-.4 1-.5 1.4-.3.6-.8 1-1.4 1.2l-.5.2c-.6.3-1.3.4-2 .5l-1.9.1c-.7 0-1.4-.1-2.1-.2-.6-.1-1.3-.2-1.9-.4l-.8-.3c-1.9-.8-3-1.7-3.5-2.8-.4-1-.8-2.1-1-3.2.4-1.1 1-2.1 1.8-3 .9-1 2-1.8 3.2-2.3l.6-.3.2-.3.7.1 1-.3c0-.1.2-.2.4-.2m0-.5c-.3 0-.5.1-.7.2l-.8.3-.5-.1s0 0-.1 0c-.2 0-.4.1-.4.3v.1l-.4.1h-.1c-1.3.6-2.4 1.4-3.3 2.5-.9.9-1.5 2-1.9 3.2v.3c.2 1.1.6 2.2 1 3.2.5 1.2 1.8 2.2 3.7 3l.8.3c.7.2 1.4.4 2 .4.7.1 1.4.2 2.2.2l2-.1c.8-.1 1.5-.2 2.2-.5l.5-.2c.7-.3 1.3-.8 1.7-1.5 0 0 0 0 0-.1l.1-.3c.1-.4.3-.7.4-1.1.2-.3.3-.7.5-1 .1-.1 0-.3 0-.4-.2-.3-.3-.6-.4-1-.1-.2-.3-.3-.5-.3s-.4.1-.5.3c-.7.4-1.3.8-2.1 1.1-.7.4-1.6.7-2.5 1l-.6.3-.7.3c-.5.2-1 .4-1.5.4h-.1c-.3 0-.6-.1-.9-.2-.4-.3-.7-.6-1-1-.2-.3-.4-.7-.4-1.1 0-1 .3-1.9 1-2.7.9-1 1.9-1.9 3-2.6.5-.2 1-.3 1.5-.4h.3s.1.1.2.1l2.7 1.2h.1l1.3.3h.1.1l.9-.1c.2 0 .3-.1.4-.2l.3-.5c.1-.2.1-.4 0-.6-.3-.3-.5-.7-.7-1.1l-.1-.3c0-.2-.2-.4-.4-.4-.9-.1-1.9-.2-3.1-.4-1.1-.2-2.4-.4-3.8-.7h-.1-.1c-.3 0-.6-.1-.9-.2 0 0 0 0-.1 0-.1.1-.2 0-.3 0z" fill="#fff"/><path d="m65.8 102.3c-.7-.1-1.5-.3-2.5-.5-.7-.2-1.4-.4-2.3-.7l-2.7-1.2c-.2 0-.3-.2-.3-.3l-.1-.1-.2-.2c-.2-.2-.2-.4-.2-.5.1-.3 0-.4 0-.6v-.1-.3c.1-.4.4-.7.9-.8h.2c.3 0 .4.1.4.2l.3-.2h.1s.9-.1.9-.1c.2 0 .2 0 .3.1.1 0 .2.1.2.4 0 .5.4.9 1.3 1.3l.6.2.4.1c.6 0 1.3-.1 2.1-.3h.6l1-.1c.2 0 .4-.1.6-.1s.5-.1.7-.2c.9-.4.8-.9.7-1.1-.1-.3-.5-.5-1-.7l-2.7-.6-1.1-.3c-.6-.1-1.3-.3-2-.5-.7-.3-1.2-.6-1.9-.8l-.5-.1c-.7-.4-1.1-.8-1.3-1.4-.3-.6-.4-1-.4-1.5.2-.8.5-1.3 1-1.8 0 0 .2-.2.4-.2h.5l.4-.3.4-.3h.1.1c.8-.1 1.6-.2 2.3-.3.5-.1 1.1-.2 1.7-.4l.5-.1h.8l.2-.1h.2.1l.5.1c.8.3 1.7.5 2.6.7l.5.2.7.2c.7.4 1.3.8 1.8 1.3.4.4.7.8 1 1.5v.3c0 .1-.1.4-.4.4h-.3c0 .1-.1.3-.4.3-1-.1-1.8-.2-2.5-.3l-.6-.2c-.6-.4-1.2-.9-1.7-1.4l-1.7-.4c-.4 0-.9.2-1.4.4-.3.1-.6.3-.8.4-.3.2-.7.4-1.1.5 0 .2-.1.4-.2.6.1.1.1.2.2.2 1 .2 2.4.6 3.7.8s2.6.6 3.8 1l.7.4.3.1c.3.2.6.4.8.5.1.1.3.2.4.2.4.4.8.8.9 1.5.1.4.2.8.2 1.3l.1.7c0 .3-.1.4-.2.5s-.2.2-.2.3c-.1.1-.2.3-.3.4-.8.8-1.9 1.5-3 1.8-.7.1-1.4.2-2 .2-.3-.1-.7.1-2.2 0z" fill="#44318f"/><path d="m66.6 88.1.4.1c.8.3 1.7.5 2.6.7l.4.2.7.2c.6.3 1.2.7 1.7 1.2.4.4.7.8.9 1.4v.2c0 .1-.1.1-.2.1h-.3l-.1.2c0 .1-.1.1-.2.1-1-.1-1.8-.2-2.5-.3l-.5-.2c-.6-.4-1.2-.9-1.7-1.4l-1.8-.4c-.5 0-1 .2-1.5.4-.7.3-1.3.7-2.1 1 0 .3-.1.5-.3.7.1.2.2.4.4.5 1.2.3 2.5.6 3.8.8s2.6.6 3.8 1l.7.4.4.1c.4.3.8.5 1.1.7.4.4.7.8.8 1.3.1.4.2.8.2 1.3l.1.7c0 .1 0 .2-.1.2-.2.2-.4.5-.6.7-.8.8-1.8 1.4-2.9 1.7-.7.1-1.4.2-2.1.2.1.2-1.9.2-1.9.2-.8-.1-1.7-.3-2.5-.5-.7-.2-1.4-.4-2.3-.7l-.9-.4-1.8-.8c-.1 0-.1-.1-.1-.1l-.1-.3-.3-.2c-.1-.1-.1-.2-.1-.3.1-.3 0-.5-.1-.8 0-.1 0-.2 0-.2.1-.3.4-.5.7-.6h.1c.1 0 .2 0 .2.1l.1.2.5-.3h.1l.8-.1c.1 0 .1 0 .2.1.1 0 .1.1.1.2 0 .6.5 1.1 1.4 1.5l.6.2.4.1c.7 0 1.4-.1 2.2-.3h.5l1-.1c.4-.1.9-.2 1.3-.3 1-.5 1-1 .9-1.4-.2-.4-.6-.7-1.1-.9-.9-.2-1.8-.4-2.7-.6-.8-.2-1.7-.4-2.8-.7-.6-.3-1.2-.6-1.9-.8l-.5-.1c-.5-.3-.9-.7-1.1-1.2-.2-.4-.4-.9-.4-1.4.2-.7.5-1.2.9-1.6 0 0 .1-.1.2-.1h.6l.5-.4.4-.3h.1c.8-.1 1.6-.2 2.3-.3s1.4-.3 2.2-.5h.7l.3-.1h.2c-.1 0-.1 0 0 0m0-.5h-.2c-.1 0-.1 0-.2 0l-.2.1h-.6-.1l-.5.1c-.6.2-1.1.3-1.7.4-.7.1-1.5.2-2.3.3h-.1c-.1 0-.2 0-.3.1l-.4.3-.4.3h-.4c-.3 0-.5.2-.6.2-.5.5-.8 1.1-1 1.8v.1c0 .5.1 1 .5 1.6.2.5.7 1 1.3 1.4 0 0 .1.1.2.1l.5.1c.6.2 1.2.5 1.8.8h.1c.8.2 1.4.4 2 .5.3.1.5.1.8.2l.8.2 1.8.4c.3.1.6.3.8.6 0 .2 0 .4-.6.7-.2 0-.4.1-.6.1s-.4.1-.6.1l-1 .1h-.5-.1c-.8.2-1.4.3-2 .3l-.3-.1h-.5c-.5-.2-1.1-.6-1.1-1s-.2-.6-.3-.6c-.1-.1-.2-.2-.5-.2 0 0 0 0-.1 0l-.8.1h-.1c-.1 0-.2 0-.3.1l-.1.1c-.1-.1-.2-.1-.5-.1h-.1c-.1 0-.1 0-.2 0-.5.2-.9.5-1 .9v.2.1.2.1c.1.2.1.3.1.4v.2c0 .1 0 .4.2.7 0 0 0 0 .1.1l.2.1v.1c0 .2.2.4.4.5l1.7.8.9.4c1 .3 1.7.5 2.4.7 1 .3 1.9.4 2.6.5h.1c1.4 0 1.9-.1 2.1-.2.7 0 1.3-.1 2-.2h.1c1.2-.3 2.2-.9 3.1-1.8.1-.1.2-.3.3-.4s.1-.2.2-.2c.2-.1.3-.3.3-.6 0 0 0 0 0-.1l-.1-.7c0-.5-.1-1-.2-1.4-.1-.7-.6-1.2-.9-1.5 0 0 0 0-.1-.1s-.3-.2-.4-.2c-.2-.1-.5-.3-.7-.4-.1 0-.1-.1-.2-.1l-.1-.4-.6-.4h-.1c-1.2-.4-2.5-.8-3.9-1-1.3-.2-2.6-.5-3.7-.8.1-.1.1-.2.2-.4.4-.2.7-.3 1-.5.3-.1.5-.3.8-.4.4-.2.9-.3 1.3-.4l1.6.4c.5.5 1.1 1 1.7 1.4h.1l.5.2h.1c.8.1 1.6.2 2.5.3.4 0 .6-.1.7-.3.7 0 .7-.5.7-.6v-.2c0-.1 0-.1 0-.2-.3-.8-.7-1.2-1-1.6-.5-.5-1.1-.9-1.8-1.3h-.1l-.7-.2-.4-.2h-.1c-.9-.2-1.8-.4-2.5-.7 0 0 0 0-.1 0l-.4-.1c-.1.1-.2.1-.2.1z" fill="#fff"/><g stroke-miterlimit="10"><path d="m231.6 109.1c-6.8 7.2-7.8 20.6-84.1 32.2-18.5 2.8-22.1-39.7 1.9-48.3 26.7-9.6 81.1-83.7 81.1-83.7" fill="#fff" stroke="#4d4948" stroke-width="3"/><path d="m212.3 32.8 22.3-29.2s6.6-6.1 7.4 2.2c0 0 .5 51.6-22.3 75-.1.1 19.2-48.3-7.4-48z" fill="#d70034" stroke="#4d4948" stroke-width="3"/><path d="m228.8 94.7c-.9 1.4-3.7 2.8-3.7 2.8 14.9-18.7-.8-20-5.2-16.4.4-1 3.2-3.3 3.2-3.3s7.6-8 12.6-13.1c0 0 9.9-10.8 7.4 3.5-2.8 15.7-9.6 23.8-18 29.3" fill="#008cb4" stroke="#4d4948" stroke-width="3"/><path d="m225.1 97.5c5.3-1.5 10.3-4 14.8-7.2 4-2.5 12.3-9.2 2.7 7.6-4 7-5.4 9.6-15 17 0 0 12.4-23.8-2.5-17.4z" fill="#44318f" stroke="#4d4948" stroke-width="3"/></g><path d="m176.7 81.8c.1-.5.3-.9.6-1.4s.7-.9 1.1-1.2c.5-.4 1.2-.6 1.8-.7l4.3-.4c.4-.1.7.1 1 .3s.4.6.5.9c.1.7-.4 1.3-1.1 1.4l-4.1.4c-.3 0-.6.1-.8.3-.2.1-.3.3-.5.4-.1.1-.2.3-.2.5s0 .3 0 .5.1.3.1.5c.1.2.2.3.3.4.2.1.4.3.6.3.3.1.5.1.8.1l4.1-.4c.4-.1.7.1 1 .3s.4.6.5.9c.1.7-.4 1.4-1.2 1.4l-4.1.4c-.3 0-.6.1-.8.3-.2.1-.3.3-.5.4-.1.1-.2.3-.2.5s0 .3 0 .5.1.3.1.5c.1.2.2.3.3.4.2.1.4.3.6.3.3.1.5.1.8.1l4.1-.4c.4 0 .7.1 1 .3s.4.6.5.9c.1.7-.5 1.4-1.2 1.4l-4.3.4c-.6.1-1.3 0-1.9-.3-.5-.2-1-.6-1.4-1-.3-.4-.6-.8-.8-1.2s-.3-.9-.4-1.3c0-.5 0-.9.1-1.4s.3-.9.6-1.4c.1-.1.1-.2.2-.2-.1-.1-.1-.1-.2-.2-.3-.4-.6-.8-.8-1.2s-.3-.9-.4-1.3c-.2-.1-.2-.6-.1-1z" fill="#4d4948"/><path d="m188.2 106c0 .4-.1.7-.3 1s-.5.5-.9.5-.7-.1-1-.3-.5-.6-.5-.9l-.7-7.7c0-.3-.2-.5-.4-.6-.2-.2-.5-.3-.8-.3s-.6 0-.8 0c-.3 0-.5.1-.8.2s-.5.3-.7.5-.3.4-.2.7l.7 7.7c.1.7-.5 1.4-1.2 1.5-.4.1-.7-.1-1-.3s-.5-.5-.5-.9l-.7-7.6c-.1-.8.1-1.7.6-2.4.4-.6 1-1.1 1.6-1.5.6-.3 1.3-.5 2-.6s1.4 0 2 .2c.7.2 1.3.6 1.9 1.1.7.7 1 1.6 1.1 2.6z" fill="#4d4948"/><path d="m181 122.6c-.2-.2-.4-.6-.4-.9l-.8-8c0-.1 0-.2 0-.3-.1-.7 0-1.4.3-2 .2-.5.5-.9.9-1.2.4-.2.8-.4 1.2-.4s.9 0 1.3.2c.5.2.9.6 1.2 1 .4.6.6 1.2.7 1.9l.6 6.6c0 .2.1.3.1.5.1.1.2.2.3.3.1 0 .1.1.2.1s.2-.1.2-.1c.1-.1.2-.2.2-.3 0-.2 0-.3 0-.5l-.8-8.2c-.1-.4 0-.7.2-1s.5-.5.8-.5.6.1.9.3c.2.2.4.6.4.9l.8 7.8v.3c.1.7 0 1.4-.3 2.1-.2.5-.6.9-1 1.3-.4.3-.8.4-1.2.5-.4 0-.9 0-1.3-.2-.5-.2-.9-.6-1.2-1.1-.4-.6-.6-1.3-.7-2l-.6-6.6c0-.1-.1-.3-.1-.4-.1-.1-.1-.2-.2-.2s-.1-.1-.2-.1-.1 0-.2.1-.1.2-.2.3-.1.3-.1.4l.8 8.5c.1.4 0 .7-.2 1s-.5.5-.8.5c-.3-.2-.6-.4-.8-.6z" fill="#4d4948"/><path d="m73.1 27.4c9.9 3.4 9.7-.7 3-15 8 10 11 11 13 0 5 10 6 11 9 2 1 4 2 5 4 6" fill="none" stroke="#4d4948" stroke-linecap="round" stroke-linejoin="round" stroke-width="3"/></svg>